<?xml version="1.0" standalone="no"?>
<!DOCTYPE svg PUBLIC "-//W3C//DTD SVG 20010904//EN"
 "http://www.w3.org/TR/2001/REC-SVG-20010904/DTD/svg10.dtd">
<svg version="1.0" xmlns="http://www.w3.org/2000/svg"
 width="600.000000pt" height="626.000000pt" viewBox="0 0 600.000000 626.000000"
 preserveAspectRatio="xMidYMid meet">

<g transform="translate(0.000000,626.000000) scale(0.100000,-0.100000)"
fill="#000000" stroke="none">
<path d="M2835 6153 c-55 -12 -85 -26 -85 -39 0 -8 42 -76 93 -152 126 -185
199 -310 298 -509 33 -68 64 -125 69 -128 4 -3 21 0 37 6 130 51 309 53 418 4
17 -8 31 -10 33 -5 5 14 -160 313 -194 351 -8 8 -14 19 -14 23 0 11 -184 267
-228 316 -50 57 -130 105 -207 125 -55 14 -174 19 -220 8z"/>
<path d="M2255 6059 c-51 -12 -287 -99 -299 -110 -10 -9 3 -42 38 -93 44 -65
216 -394 278 -531 15 -34 52 -87 83 -120 127 -135 229 -340 271 -540 7 -36 -3
-48 121 140 47 71 108 158 134 194 27 35 49 68 49 72 0 8 -32 78 -101 224 -65
139 -387 653 -452 723 -19 21 -71 54 -79 51 -2 -1 -21 -5 -43 -10z"/>
<path d="M3687 6063 c-3 -5 13 -35 34 -68 201 -302 444 -800 546 -1117 10 -32
22 -58 26 -58 5 0 45 31 90 70 92 79 186 132 272 155 32 8 60 17 63 20 10 10
-173 388 -256 529 -55 93 -162 206 -247 261 -90 57 -225 118 -365 163 -69 22
-132 44 -141 47 -10 4 -19 3 -22 -2z"/>
<path d="M1490 5719 c-85 -56 -217 -149 -234 -164 -6 -6 -38 -31 -71 -57 -33
-25 -109 -92 -168 -150 -107 -103 -107 -104 -96 -136 6 -17 40 -59 77 -93 l66
-62 20 25 c12 14 38 49 60 79 58 81 153 157 274 219 115 60 171 76 300 86 45
4 82 11 82 17 0 13 -64 128 -102 184 -15 23 -28 46 -28 51 0 4 -10 18 -23 30
-36 33 -73 27 -157 -29z"/>
<path d="M5030 5255 c0 -2 17 -49 38 -102 22 -54 47 -123 56 -153 10 -30 41
-89 70 -130 61 -88 69 -104 95 -190 37 -118 52 -213 61 -380 5 -91 16 -203 24
-249 31 -163 52 -337 76 -628 20 -239 8 -622 -29 -963 -44 -400 -169 -911
-330 -1350 -74 -200 -73 -207 17 -113 158 169 351 442 457 647 416 810 468
1734 145 2606 -74 201 -251 524 -383 700 -76 102 -269 310 -286 310 -6 0 -11
-2 -11 -5z"/>
<path d="M1608 5204 c-64 -12 -199 -69 -206 -86 -2 -4 -10 -8 -18 -8 -20 0
-174 -154 -174 -174 0 -9 -4 -16 -10 -16 -5 0 -10 -7 -10 -15 0 -8 -4 -15 -10
-15 -5 0 -10 -7 -10 -15 0 -8 -4 -23 -9 -33 -23 -46 -31 -99 -31 -210 0 -67 4
-130 9 -140 5 -9 15 -30 22 -47 21 -45 35 -62 102 -118 40 -34 135 -67 192
-67 61 0 147 31 177 63 26 29 42 85 29 101 -6 7 -8 16 -4 19 3 4 -5 7 -20 7
-14 0 -27 4 -29 8 -1 5 -16 15 -33 23 -16 8 -43 34 -60 57 -28 41 -30 49 -30
140 0 73 4 106 18 131 9 19 17 38 17 42 0 9 11 24 64 86 32 38 116 83 154 83
54 0 139 -36 177 -75 63 -63 112 -150 128 -225 24 -116 23 -605 -2 -780 -22
-158 -89 -428 -122 -492 -5 -10 -9 -29 -9 -43 0 -14 -4 -33 -9 -43 -5 -9 -15
-37 -22 -62 -7 -25 -16 -49 -21 -54 -4 -6 -8 -19 -8 -31 0 -12 -4 -25 -8 -31
-5 -5 -15 -29 -22 -54 -12 -40 -42 -115 -87 -220 -8 -19 -19 -45 -24 -57 -5
-13 -13 -34 -19 -48 -5 -14 -14 -36 -20 -50 -5 -14 -14 -35 -19 -47 -5 -13
-18 -44 -30 -70 -12 -26 -21 -51 -21 -55 0 -5 -11 -30 -25 -57 -14 -27 -25
-55 -25 -63 0 -7 -4 -13 -10 -13 -5 0 -10 -9 -10 -20 0 -11 -4 -28 -9 -38 -12
-23 -40 -92 -62 -152 -7 -19 -28 -66 -46 -104 -18 -38 -33 -75 -33 -83 0 -7
-4 -13 -10 -13 -5 0 -10 -7 -10 -15 0 -8 -4 -23 -9 -33 -5 -9 -13 -28 -19 -42
-31 -78 -101 -239 -113 -262 -5 -10 -9 -25 -9 -33 0 -8 -4 -15 -10 -15 -5 0
-10 -7 -10 -15 0 -8 -4 -23 -9 -33 -5 -9 -13 -28 -19 -42 -5 -14 -19 -45 -30
-70 -11 -25 -32 -76 -47 -115 -16 -38 -32 -74 -37 -80 -4 -5 -8 -17 -8 -27 0
-10 -4 -18 -10 -18 -5 0 -10 -11 -10 -25 0 -14 -4 -25 -10 -25 -5 0 -10 -9
-10 -19 0 -11 -5 -23 -10 -26 -6 -3 -10 -17 -10 -31 l0 -24 248 0 249 0 23 52
c12 29 27 64 32 78 6 14 14 33 19 42 5 10 9 25 9 33 0 8 5 15 10 15 6 0 10 8
10 18 0 10 4 22 8 27 5 6 15 30 22 55 8 25 17 50 20 55 4 6 15 30 24 55 10 25
31 74 48 110 16 36 35 76 40 90 6 14 14 33 19 42 5 10 9 27 9 38 0 11 5 20 10
20 6 0 10 7 10 15 0 8 4 23 9 33 14 25 49 106 68 155 9 23 20 46 25 51 4 6 8
18 8 28 0 10 5 18 10 18 6 0 10 7 10 15 0 8 8 29 18 47 10 18 24 53 32 78 8
25 20 54 26 65 7 11 24 50 38 88 32 87 60 149 139 317 24 52 50 112 56 133 7
20 17 37 22 37 5 0 9 9 9 19 0 11 5 23 10 26 6 3 10 15 10 26 0 10 5 19 10 19
6 0 10 6 10 13 0 8 6 27 14 43 8 16 22 47 31 69 10 22 32 72 51 110 46 99 95
206 104 230 21 54 72 167 111 249 16 33 29 65 29 73 0 7 5 13 10 13 6 0 10 7
10 15 0 8 4 23 9 33 17 30 81 172 81 177 0 17 243 508 260 525 3 3 12 19 20
35 62 125 183 267 237 278 65 13 123 -29 144 -105 20 -74 -5 -355 -34 -384 -4
-4 -7 -22 -7 -40 0 -18 -4 -36 -10 -39 -5 -3 -10 -19 -10 -35 0 -16 -4 -32
-10 -35 -5 -3 -10 -19 -10 -35 0 -16 -4 -32 -10 -35 -5 -3 -10 -15 -10 -26 0
-10 -4 -27 -10 -37 -5 -9 -26 -66 -46 -127 -20 -60 -41 -114 -45 -119 -5 -6
-9 -20 -9 -33 0 -13 -4 -23 -10 -23 -5 0 -10 -13 -10 -30 0 -16 -4 -30 -10
-30 -5 0 -10 -11 -10 -25 0 -14 -3 -25 -8 -25 -4 0 -13 -19 -20 -42 -8 -24
-27 -74 -44 -113 -39 -91 -58 -134 -70 -165 -6 -14 -14 -33 -19 -42 -5 -10 -9
-27 -9 -38 0 -11 -4 -20 -10 -20 -5 0 -10 -9 -10 -19 0 -11 -4 -23 -10 -26 -6
-3 -10 -14 -10 -25 0 -10 -9 -35 -19 -57 -11 -21 -31 -72 -46 -113 -15 -41
-30 -84 -35 -95 -21 -49 -50 -143 -50 -163 0 -11 -4 -24 -10 -27 -5 -3 -10
-16 -10 -29 0 -12 -4 -26 -8 -32 -9 -10 -17 -36 -73 -234 -25 -91 -37 -140
-50 -202 -5 -27 -14 -72 -19 -100 -25 -123 -32 -180 -37 -302 -3 -85 -1 -132
6 -139 6 -6 11 -18 11 -26 0 -8 18 -32 41 -53 40 -38 41 -38 124 -38 46 0 87
4 90 10 3 5 13 10 21 10 31 0 134 91 134 118 0 6 5 12 10 12 6 0 10 9 10 19 0
11 3 21 8 23 10 4 142 270 142 286 0 6 5 12 10 12 6 0 10 6 10 14 0 8 8 31 19
53 26 52 104 221 122 261 8 17 17 32 21 32 5 0 8 11 8 25 0 14 5 25 10 25 6 0
10 9 10 19 0 11 5 23 10 26 6 3 10 15 10 26 0 10 5 19 10 19 6 0 10 4 10 10 0
5 25 63 56 127 31 65 65 138 76 163 11 25 29 62 39 83 11 22 19 45 19 53 0 8
5 14 10 14 6 0 10 4 10 9 0 15 73 166 82 169 5 2 8 10 8 17 0 7 9 30 19 52 11
21 45 92 78 158 32 66 61 122 66 123 4 2 7 12 7 23 0 10 3 19 8 19 8 0 32 49
32 67 0 7 5 13 10 13 6 0 10 6 10 14 0 13 61 135 110 221 13 22 35 63 50 90
59 109 198 328 212 333 4 2 8 9 8 16 0 17 105 137 156 176 40 31 78 45 119 43
40 -1 54 -9 103 -53 38 -34 67 -148 52 -201 -6 -19 -10 -58 -10 -86 0 -29 -4
-53 -10 -53 -5 0 -10 -13 -10 -30 0 -16 -4 -30 -10 -30 -5 0 -10 -11 -10 -25
0 -13 -4 -34 -9 -47 -5 -13 -22 -63 -37 -113 -15 -49 -31 -94 -36 -100 -4 -5
-8 -19 -8 -32 0 -13 -4 -23 -10 -23 -5 0 -10 -7 -10 -15 0 -8 -4 -23 -9 -33
-8 -16 -17 -37 -40 -94 -5 -13 -16 -39 -25 -60 -9 -20 -16 -39 -16 -42 0 -3
-9 -28 -21 -54 -12 -26 -25 -57 -30 -69 -5 -13 -13 -34 -19 -48 -24 -61 -33
-81 -41 -97 -5 -10 -9 -27 -9 -38 0 -11 -4 -20 -10 -20 -5 0 -10 -10 -10 -23
0 -13 -4 -27 -9 -33 -4 -5 -21 -43 -35 -84 -30 -81 -44 -116 -57 -142 -5 -10
-9 -29 -9 -43 0 -14 -4 -25 -10 -25 -5 0 -10 -13 -10 -29 0 -17 -4 -33 -10
-36 -5 -3 -10 -17 -10 -30 0 -13 -4 -27 -10 -30 -5 -3 -10 -17 -10 -30 0 -13
-4 -27 -10 -30 -5 -3 -10 -15 -10 -26 0 -10 -4 -27 -10 -37 -5 -9 -16 -46 -25
-82 -28 -116 -41 -159 -48 -166 -4 -4 -7 -25 -7 -46 0 -21 -4 -38 -9 -38 -5 0
-12 -24 -15 -52 -3 -29 -10 -84 -16 -123 -25 -165 -33 -257 -34 -375 0 -133
11 -257 25 -266 5 -3 9 -20 9 -39 0 -19 5 -37 10 -40 6 -3 10 -17 10 -31 0
-13 3 -24 8 -24 4 0 13 -13 20 -29 16 -37 128 -151 147 -151 8 0 15 -4 15 -8
0 -21 183 -54 236 -42 21 5 52 10 68 10 29 0 158 56 164 72 2 4 8 8 13 8 13 0
79 67 79 80 0 5 5 10 10 10 6 0 10 6 10 14 0 8 4 16 8 18 4 2 18 25 30 51 31
66 35 248 7 291 -23 35 -69 34 -71 -2 -2 -32 -42 -106 -73 -135 -84 -77 -194
-48 -245 66 -24 54 -29 96 -29 252 -1 143 2 175 23 290 5 28 14 79 21 115 11
60 57 247 81 330 5 19 12 50 15 68 3 18 9 35 14 38 5 3 9 21 9 40 0 19 5 34
10 34 6 0 10 9 10 20 0 11 4 28 9 38 5 9 15 37 21 62 7 25 16 54 20 65 5 11
21 58 36 105 25 79 53 151 75 192 5 10 9 27 9 37 0 11 5 23 10 26 6 3 10 15
10 26 0 10 5 19 10 19 6 0 10 8 10 19 0 10 7 31 14 47 8 15 13 31 10 36 -3 4
0 8 5 8 6 0 11 11 11 24 0 14 5 28 10 31 6 3 10 13 10 22 0 14 20 66 41 105 5
10 9 27 9 37 0 11 4 23 10 26 6 3 10 17 10 30 0 13 4 27 10 30 6 3 10 19 10
35 0 16 4 31 9 34 5 3 11 23 14 43 3 21 10 56 15 78 45 184 54 252 48 366 -6
125 -35 253 -77 344 -19 41 -97 123 -134 140 -51 25 -123 33 -199 24 -64 -8
-156 -42 -164 -61 -2 -5 -10 -8 -18 -8 -8 0 -14 -4 -14 -8 0 -5 -12 -15 -27
-23 -16 -8 -30 -17 -33 -21 -11 -14 -125 -142 -147 -164 -13 -13 -23 -27 -23
-32 0 -4 -8 -17 -18 -28 -10 -10 -33 -41 -52 -69 -18 -27 -36 -52 -39 -55 -13
-12 -101 -151 -101 -160 0 -5 -4 -10 -8 -10 -5 0 -15 -12 -23 -27 -7 -16 -28
-50 -45 -78 -17 -27 -40 -68 -51 -90 -21 -42 -67 -127 -100 -185 -11 -19 -37
-69 -59 -110 -21 -41 -42 -76 -46 -78 -5 -2 -8 -12 -8 -22 0 -10 -4 -22 -10
-25 -5 -3 -10 -15 -10 -26 0 -10 -4 -19 -10 -19 -5 0 -10 -9 -10 -20 0 -11 -4
-20 -10 -20 -5 0 -10 -9 -10 -20 0 -11 -4 -20 -10 -20 -5 0 -10 -5 -10 -11 0
-6 -30 -72 -66 -147 -37 -75 -75 -155 -84 -177 -10 -22 -31 -69 -48 -105 -16
-36 -37 -83 -47 -105 -9 -22 -21 -48 -26 -57 -5 -10 -9 -25 -9 -33 0 -8 -4
-15 -10 -15 -5 0 -10 -7 -10 -15 0 -8 -4 -23 -9 -33 -8 -16 -17 -37 -40 -94
-5 -13 -16 -39 -24 -58 -8 -19 -25 -60 -38 -90 -12 -30 -26 -59 -31 -64 -4 -6
-8 -18 -8 -28 0 -10 -4 -18 -10 -18 -5 0 -10 -9 -10 -19 0 -11 -5 -23 -10 -26
-5 -3 -10 -15 -10 -25 0 -20 -32 -44 -44 -33 -16 17 -2 97 44 239 6 17 10 40
10 52 0 11 4 24 10 27 5 3 10 19 10 35 0 16 5 32 10 35 6 3 10 17 10 31 0 13
4 32 9 42 5 9 15 37 21 62 29 104 41 139 91 268 5 12 13 32 18 45 14 37 33 81
42 99 5 10 9 25 9 33 0 8 4 23 9 33 5 9 13 28 18 42 6 14 15 36 21 50 6 14 19
50 28 80 27 92 45 143 65 182 5 10 9 27 9 37 0 11 4 22 8 25 4 3 14 28 22 56
8 28 18 53 22 56 4 3 8 16 8 30 0 13 4 32 9 42 10 20 19 51 56 187 14 55 30
110 36 123 5 13 9 44 9 70 0 27 4 52 9 57 14 15 22 94 27 289 4 121 2 182 -5
189 -6 6 -11 23 -11 37 0 46 -71 169 -127 222 -60 56 -96 68 -203 68 -55 0
-102 -4 -105 -10 -3 -5 -15 -10 -26 -10 -10 0 -19 -4 -19 -10 0 -5 -7 -10 -15
-10 -17 0 -34 -14 -128 -106 -81 -80 -127 -132 -127 -144 0 -6 -4 -10 -10 -10
-5 0 -10 -6 -10 -14 0 -8 -4 -16 -8 -18 -5 -1 -35 -41 -68 -88 -32 -47 -62
-86 -66 -88 -5 -2 -8 -12 -8 -23 0 -10 -4 -19 -8 -19 -5 0 -15 -12 -23 -27 -8
-16 -16 -30 -20 -33 -3 -3 -13 -21 -23 -40 -9 -19 -30 -55 -46 -80 -16 -25
-29 -51 -29 -57 -1 -7 -5 -13 -11 -13 -5 0 -10 -9 -10 -20 0 -11 -3 -20 -8
-20 -4 0 -13 -15 -21 -32 -8 -18 -17 -35 -20 -38 -4 -3 -29 -49 -56 -102 -56
-109 -73 -135 -94 -140 -12 -3 -15 36 -16 247 -2 232 -4 257 -27 345 -41 155
-97 299 -120 308 -4 2 -8 12 -8 23 0 10 -4 19 -8 19 -4 0 -15 12 -24 28 -22
35 -103 122 -114 122 -5 0 -22 12 -39 26 -64 56 -313 146 -393 143 -15 -1 -57
-7 -94 -15z"/>
<path d="M655 4911 c-40 -17 -83 -74 -147 -194 -80 -150 -79 -148 -67 -189 18
-68 429 -450 665 -618 215 -154 613 -390 658 -390 16 0 61 134 96 290 11 52
25 111 30 131 6 20 10 57 10 81 l0 46 -105 53 -104 53 -54 -17 c-60 -19 -178
-22 -247 -6 -129 30 -273 143 -342 269 -38 69 -45 93 -58 180 -8 53 -12 59
-127 176 -142 145 -157 155 -208 135z"/>
<path d="M1767 4879 c-24 -14 -56 -85 -57 -125 0 -29 3 -32 54 -44 86 -20 164
-115 167 -203 2 -34 3 -37 7 -12 7 48 -18 235 -40 292 -20 53 -66 103 -96 103
-9 0 -25 -5 -35 -11z"/>
<path d="M3980 4553 c0 -16 -3 -58 -7 -95 -7 -80 6 -89 37 -28 24 47 25 58 4
110 -19 46 -34 52 -34 13z"/>
<path d="M3102 4312 c-35 -75 -207 -450 -232 -507 -5 -11 -40 -87 -77 -170
l-68 -150 -3 -172 c-2 -108 1 -179 7 -190 10 -16 11 -16 17 6 4 13 45 116 92
230 194 474 237 587 319 831 29 89 33 110 24 136 -6 17 -11 37 -11 46 0 9 -6
18 -13 21 -10 4 -27 -23 -55 -81z"/>
<path d="M4588 4352 c-21 -23 -59 -73 -84 -112 l-47 -70 16 -84 c10 -47 17
-101 17 -122 0 -62 25 -25 63 94 57 177 80 270 75 307 l-3 28 -37 -41z"/>
<path d="M252 4147 c-6 -7 -19 -46 -30 -87 -11 -41 -27 -95 -35 -120 -79 -233
-75 -333 12 -395 16 -11 59 -47 97 -81 234 -207 272 -239 444 -375 171 -135
660 -435 696 -427 9 2 54 99 115 246 54 134 99 247 99 252 0 5 -66 43 -146 85
-226 118 -441 255 -654 415 -187 141 -244 191 -472 407 -54 51 -102 93 -107
93 -5 0 -13 -6 -19 -13z"/>
<path d="M4067 3448 c-121 -244 -176 -359 -354 -738 -67 -143 -70 -152 -83
-255 -28 -235 -32 -257 -71 -455 -128 -652 -377 -1259 -725 -1773 -52 -76 -94
-142 -94 -147 0 -16 38 -22 181 -27 184 -7 209 -3 266 50 89 82 292 365 418
582 82 142 213 417 275 574 57 147 55 128 26 311 -40 243 -3 583 110 1010 30
114 49 171 127 395 32 94 63 187 67 208 13 64 -13 477 -30 477 -4 0 -55 -96
-113 -212z"/>
<path d="M5056 3258 c-81 -206 -212 -619 -266 -838 -49 -199 -68 -310 -76
-452 -8 -118 -1 -132 39 -82 23 30 90 63 126 64 14 0 40 -5 58 -12 44 -16 45
-13 72 121 60 305 88 579 97 929 7 251 3 342 -14 342 -4 0 -20 -33 -36 -72z"/>
<path d="M70 3123 c1 -110 22 -437 31 -478 18 -79 71 -185 126 -251 57 -68
131 -126 338 -265 184 -124 498 -309 524 -309 4 0 17 21 29 48 54 121 172 405
178 426 6 27 1 32 -96 82 -280 143 -597 359 -957 651 -84 68 -157 123 -163
123 -5 0 -10 -12 -10 -27z"/>
<path d="M2323 2582 c-57 -131 -93 -227 -89 -238 7 -17 72 -19 82 -2 10 17 32
241 25 255 -4 8 -11 2 -18 -15z"/>
<path d="M2072 1988 c-7 -7 -12 -16 -12 -21 0 -6 -43 -110 -96 -233 -52 -123
-93 -228 -89 -234 6 -10 52 -25 138 -45 78 -17 89 -7 122 115 14 52 42 145 61
206 46 145 44 172 -16 201 -51 25 -90 29 -108 11z"/>
<path d="M379 1747 c59 -128 125 -247 220 -392 192 -296 534 -635 855 -847 48
-32 97 -58 108 -58 11 0 32 12 47 28 57 58 331 550 331 596 0 20 -24 32 -122
62 -94 28 -98 26 -129 -47 -22 -49 -60 -86 -115 -108 -22 -9 -108 -11 -320 -9
-288 3 -291 3 -326 27 -103 71 -112 169 -33 346 53 116 56 128 43 140 -7 7
-51 33 -98 57 -124 66 -240 135 -364 216 -61 40 -116 72 -123 72 -8 0 2 -30
26 -83z"/>
<path d="M2514 1579 c-5 -8 -32 -81 -60 -164 -75 -216 -105 -296 -163 -423
-74 -166 -252 -503 -285 -542 -32 -37 -87 -151 -82 -168 8 -23 18 -28 188 -86
83 -28 156 -46 183 -46 44 0 46 1 110 83 155 195 329 479 455 742 106 221 223
525 208 540 -3 3 -21 -3 -39 -14 -59 -35 -156 -54 -241 -48 -95 6 -171 39
-226 97 -30 32 -41 39 -48 29z"/>
<path d="M4162 1028 c-6 -13 -32 -70 -57 -128 -90 -206 -278 -546 -382 -691
-43 -60 -42 -68 5 -59 84 17 394 130 488 178 95 49 197 191 369 515 32 60 53
112 49 117 -5 4 -38 4 -73 -1 -98 -14 -219 10 -319 63 -63 34 -66 34 -80 6z"/>
</g>
</svg>
